# Blender v2.90.1 OBJ File: ''
# www.blender.org
mtllib apple.mtl
o Cube.001_Cube.000
v -0.472166 0.000000 -0.440928
v -0.023169 0.000000 -0.677245
v -0.019919 -0.378794 -0.582249
v -0.347394 -0.437057 -0.324411
v 0.483305 0.000000 -0.517545
v 0.677245 0.000000 -0.023169
v 0.582249 -0.378794 -0.019919
v 0.355590 -0.435740 -0.380782
v 0.472166 -0.000000 0.440928
v 0.023169 -0.000000 0.677245
v 0.019919 -0.378794 0.582249
v 0.347394 -0.437057 0.324411
v -0.483305 -0.000000 0.517545
v -0.677245 -0.000000 0.023169
v -0.582249 -0.378794 0.019919
v -0.355590 -0.449002 0.380782
v 0.000000 -0.462047 -0.000000
v 0.154139 -0.502029 -0.165059
v 0.136515 -0.507286 0.127484
v 0.000552 0.401035 -0.000591
v 0.196020 0.486466 -0.216095
v -0.214941 0.490569 -0.202375
v -0.355590 0.443850 0.380782
v -0.582249 0.334088 0.019919
v 0.347394 0.437057 0.324411
v 0.019919 0.334088 0.582249
v 0.355590 0.422048 -0.380782
v 0.582249 0.334088 -0.019919
v -0.347394 0.437057 -0.324411
v -0.019919 0.334088 -0.582249
v -0.207458 0.497235 0.215968
v -0.159323 -0.506265 0.170611
v -0.152948 -0.501813 -0.142829
v 0.236286 0.484752 0.219000
v -0.017841 0.581322 -0.025671
v 0.003214 0.581322 -0.042249
v 0.003560 0.404912 -0.032131
v -0.011805 0.386167 -0.020034
v 0.027358 0.581322 -0.029296
v 0.041931 0.581322 -0.006094
v 0.031813 0.404912 -0.005748
v 0.021178 0.372653 -0.022679
v 0.026831 0.581322 0.016045
v 0.005775 0.581322 0.032623
v 0.005429 0.404912 0.022505
v 0.020794 0.386167 0.010408
v -0.018368 0.581322 0.019670
v -0.032942 0.581322 -0.003532
v -0.022824 0.404912 -0.003878
v -0.012189 0.372653 0.013053
v 0.004495 0.348946 -0.004813
v -0.010647 0.806408 -0.067172
v 0.016979 0.767991 -0.077534
v -0.005628 0.727260 -0.074241
v -0.030885 0.767892 -0.073875
v -0.036982 0.817114 -0.044328
v -0.048294 0.766101 -0.047985
v 0.012382 0.784985 -0.033469
v -0.010795 0.780915 -0.012966
v 0.031872 0.742074 -0.039222
vt 0.506601 0.624404
vt 0.527580 0.425172
vt 0.654587 0.468197
vt 0.654587 0.637525
vt 0.850492 0.153641
vt 0.827813 0.364865
vt 0.695205 0.330792
vt 0.692741 0.158549
vt 0.824773 0.614620
vt 0.787463 0.425225
vt 0.918536 0.427428
vt 0.966157 0.586835
vt 0.165931 0.589597
vt 0.185314 0.799312
vt 0.047623 0.799312
vt 0.004710 0.632468
vt 0.171518 0.213390
vt 0.182403 0.302827
vt 0.105077 0.223896
vt 0.516435 0.211658
vt 0.532260 0.091827
vt 0.619460 0.221863
vt 0.318691 0.590135
vt 0.298316 0.765512
vt 0.663714 0.644084
vt 0.671880 0.474118
vt 0.995459 0.199547
vt 0.946786 0.364865
vt 0.348542 0.589211
vt 0.404993 0.428794
vt 0.360457 0.752818
vt 0.475777 0.802061
vt 0.719500 0.801186
vt 0.842852 0.805655
vt 0.488988 0.413409
vt 0.501497 0.323014
vt 0.683187 0.236166
vt 0.640444 0.401380
vt 0.144957 0.006221
vt 0.158700 0.120035
vt 0.005009 0.241615
vt 0.007143 0.074589
vt 0.966157 0.754496
vt 0.610051 0.792220
vt 0.296562 0.026126
vt 0.338943 0.185697
vt 0.244301 0.200657
vt 0.350776 0.355113
vt 0.348965 0.182782
vt 0.402453 0.187597
vt 0.977416 0.055815
vt 0.863441 0.005392
vt 0.257993 0.450322
vt 0.138412 0.432697
vt 0.393519 0.031864
vt 0.543236 0.006109
vt 0.338943 0.353961
vt 0.198800 0.420977
vt 0.007300 0.484122
vt 0.725836 0.021742
vt 0.049525 0.402425
vt 0.683187 0.078132
vt 0.037194 0.900392
vt 0.046690 0.899533
vt 0.049468 0.969745
vt 0.043063 0.977848
vt 0.063450 0.901158
vt 0.053831 0.899769
vt 0.063383 0.829534
vt 0.071874 0.817677
vt 0.086251 0.897484
vt 0.076823 0.896958
vt 0.083728 0.827768
vt 0.091078 0.820728
vt 0.008651 0.903894
vt 0.018325 0.902641
vt 0.023606 0.973439
vt 0.017822 0.987204
vt 0.069990 0.807599
vt 0.060909 0.821429
vt 0.042123 0.810797
vt 0.053121 0.824842
vt 0.047296 0.842203
vt 0.039116 0.827287
vt 0.022176 0.807654
vt 0.027321 0.827300
vt 0.090051 0.981790
vt 0.079206 0.979451
vt 0.071758 0.978197
vt 0.058518 0.965712
vt 0.028601 0.828549
vt 0.028100 0.900871
vt 0.097431 0.964651
vt 0.095602 0.898536
vt 0.029476 0.807572
vt 0.082545 0.816088
vt 0.091806 0.807427
vt 0.097431 0.828919
vt 0.035902 0.970721
vt 0.027321 0.981153
vt 0.021247 0.997157
vt 0.334922 0.446167
vt 0.324024 0.443864
vt 0.323571 0.427478
vt 0.334922 0.429945
vt 0.076179 0.962147
vt 0.071367 0.902190
vt 0.009377 0.824110
vt 0.000404 0.905439
vt 0.057852 0.982859
vt 0.071142 0.993453
vt 0.053121 0.981582
vt 0.045206 0.991656
vt 0.010529 0.975482
vt 0.076179 0.831301
vn -0.4982 -0.2900 -0.8171
vn 0.8624 -0.3052 -0.4038
vn 0.4982 -0.2900 0.8171
vn -0.8654 -0.3006 0.4009
vn -0.2853 -0.9578 -0.0344
vn 0.0221 0.9224 0.3857
vn -0.8665 0.3174 0.3854
vn 0.4821 0.3053 0.8212
vn 0.8612 0.3259 -0.3900
vn -0.4821 0.3053 -0.8212
vn -0.8522 0.3053 -0.4249
vn 0.8522 0.3053 0.4249
vn -0.3890 0.9212 -0.0126
vn 0.0390 -0.9582 0.2833
vn 0.8492 -0.2900 0.4412
vn -0.8492 -0.2900 -0.4412
vn -0.2851 -0.9583 -0.0195
vn 0.0374 0.9215 0.3867
vn 0.3303 0.3259 -0.8859
vn -0.3253 0.3174 0.8908
vn 0.3807 0.9245 -0.0182
vn -0.0208 -0.9592 -0.2818
vn -0.3408 -0.3006 0.8908
vn 0.3439 -0.3052 -0.8880
vn 0.2830 -0.9591 0.0015
vn 0.2590 -0.9658 -0.0085
vn -0.0456 -0.9558 -0.2903
vn 0.0175 -0.9679 0.2508
vn 0.0286 0.9234 -0.3827
vn -0.3652 0.9302 0.0375
vn 0.4009 0.9159 -0.0218
vn -0.0096 0.9241 -0.3819
vn -0.6039 -0.0441 -0.7958
vn 0.8620 -0.0456 -0.5048
vn 0.6039 -0.0441 0.7959
vn -0.8620 -0.0456 0.5048
vn 0.8843 -0.4286 0.1853
vn -0.0761 0.0839 -0.9936
vn -0.7968 0.0897 0.5975
vn 0.6136 0.2257 0.7567
vn 0.8918 -0.0528 -0.4494
vn -0.5081 -0.2334 -0.8291
vn -0.8079 -0.2001 -0.5543
vn 0.7502 0.1938 0.6322
vn -0.6768 0.3155 -0.6652
vn 0.2453 -0.4285 0.8696
vn 0.8353 -0.0441 0.5481
vn -0.8352 -0.0441 -0.5481
vn -0.8843 -0.4286 -0.1853
vn 0.4435 0.8106 0.3824
vn 0.3615 -0.1988 -0.9109
vn -0.5893 0.1521 0.7935
vn 0.8505 0.5144 -0.1097
vn -0.2453 -0.4286 -0.8696
vn -0.4447 -0.0456 0.8945
vn 0.4447 -0.0456 -0.8945
usemtl red.001
s 1
f 1/1/1 2/2/1 3/3/1 4/4/1
f 5/5/2 6/6/2 7/7/2 8/8/2
f 9/9/3 10/10/3 11/11/3 12/12/3
f 13/13/4 14/14/4 15/15/4 16/16/4
f 17/17/5 18/18/5 19/19/5
f 20/20/6 21/21/6 22/22/6
f 23/23/7 24/24/7 14/14/7 13/13/7
f 25/25/8 26/26/8 10/10/8 9/9/8
f 27/27/9 28/28/9 6/6/9 5/5/9
f 29/29/10 30/30/10 2/2/10 1/1/10
f 24/31/11 29/29/11 1/1/11 14/32/11
f 28/33/12 25/25/12 9/9/12 6/34/12
f 23/35/13 31/36/13 22/22/13 29/37/13 24/38/13
f 16/39/14 32/40/14 19/19/14 12/41/14 11/42/14
f 6/34/15 9/9/15 12/12/15 7/43/15
f 14/32/16 1/1/16 4/4/16 15/44/16
f 15/45/17 4/46/17 33/47/17 32/40/17 16/39/17
f 26/48/18 25/49/18 34/50/18 31/36/18 23/35/18
f 30/51/19 27/27/19 5/5/19 2/52/19
f 26/53/20 23/23/20 13/13/20 10/54/20
f 25/49/21 28/55/21 27/56/21 21/21/21 34/50/21
f 4/46/22 3/57/22 8/58/22 18/18/22 33/47/22
f 10/54/23 13/13/23 16/16/23 11/59/23
f 2/52/24 5/5/24 8/8/24 3/60/24
f 19/19/25 18/18/25 8/58/25 7/61/25 12/41/25
f 32/40/26 33/47/26 17/17/26
f 19/19/27 32/40/27 17/17/27
f 33/47/28 18/18/28 17/17/28
f 31/36/29 34/50/29 20/20/29
f 34/50/30 21/21/30 20/20/30
f 22/22/31 31/36/31 20/20/31
f 22/22/32 21/21/32 27/56/32 30/62/32 29/37/32
usemtl brown.001
f 35/63/33 36/64/33 37/65/33 38/66/33
f 39/67/34 40/68/34 41/69/34 42/70/34
f 43/71/35 44/72/35 45/73/35 46/74/35
f 47/75/36 48/76/36 49/77/36 50/78/36
f 51/79/37 42/70/37 41/69/37 46/80/37
f 52/81/38 53/82/38 54/83/38 55/84/38
f 56/85/39 57/86/39 48/76/39 47/75/39
f 58/87/40 59/88/40 44/72/40 43/71/40
f 53/89/41 60/90/41 40/68/41 39/67/41
f 55/84/42 54/83/42 36/64/42 35/63/42
f 57/91/43 55/84/43 35/63/43 48/92/43
f 60/93/44 58/87/44 43/71/44 40/94/44
f 56/95/45 52/81/45 55/84/45 57/91/45
f 50/96/46 51/97/46 46/74/46 45/73/46
f 40/94/47 43/71/47 46/74/47 41/98/47
f 48/92/48 35/63/48 38/66/48 49/99/48
f 49/77/49 38/100/49 51/101/49 50/78/49
f 59/102/50 58/103/50 52/104/50 56/105/50
f 54/106/51 53/89/51 39/67/51 36/107/51
f 59/108/52 56/85/52 47/75/52 44/109/52
f 58/110/53 60/90/53 53/89/53 52/111/53
f 38/66/54 37/65/54 42/112/54 51/113/54
f 44/109/55 47/75/55 50/78/55 45/114/55
f 36/107/56 39/67/56 42/70/56 37/115/56
