# Blender v2.92.0 OBJ File: 'lowpoly fruits.blend'
# www.blender.org
mtllib apple.mtl
o Cube.001_Cube.000
v -0.582249 -0.378794 0.019919
v -0.582249 0.334088 0.019919
v -0.019919 -0.378794 -0.582249
v -0.019919 0.334088 -0.582249
v 0.019919 -0.378794 0.582249
v 0.019919 0.334088 0.582249
v 0.582249 -0.378794 -0.019919
v 0.582249 0.334088 -0.019919
v -0.677245 0.000000 0.023169
v -0.023169 0.000000 -0.677245
v 0.677245 0.000000 -0.023169
v 0.023169 0.000000 0.677245
v -0.347394 0.437057 -0.324411
v -0.347394 -0.437057 -0.324411
v 0.347394 0.437057 0.324411
v 0.347394 -0.437057 0.324411
v 0.472166 0.000000 0.440928
v -0.472166 0.000000 -0.440928
v 0.355590 0.422048 -0.380782
v 0.355590 -0.435740 -0.380782
v -0.355590 0.443850 0.380782
v -0.355590 -0.449002 0.380782
v -0.483305 0.000000 0.517545
v 0.483305 0.000000 -0.517545
v 0.000552 0.401035 -0.000591
v 0.000000 -0.462047 0.000000
v -0.022824 0.404912 -0.003878
v -0.048294 0.766101 -0.047985
v 0.003560 0.404912 -0.032131
v -0.005628 0.727260 -0.074241
v 0.005429 0.404912 0.022505
v -0.010795 0.780915 -0.012966
v 0.031813 0.404912 -0.005748
v 0.031872 0.742074 -0.039222
v -0.032942 0.581322 -0.003532
v 0.003214 0.581322 -0.042249
v 0.041931 0.581322 -0.006094
v 0.005775 0.581322 0.032623
v -0.030885 0.767892 -0.073875
v -0.011805 0.386167 -0.020034
v 0.012382 0.784985 -0.033469
v 0.020794 0.386167 0.010408
v 0.026831 0.581322 0.016045
v -0.017841 0.581322 -0.025671
v 0.016979 0.767991 -0.077534
v 0.021178 0.372653 -0.022679
v -0.036982 0.817114 -0.044328
v -0.012189 0.372653 0.013053
v -0.018368 0.581322 0.019670
v 0.027358 0.581322 -0.029296
v -0.010647 0.806408 -0.067172
v 0.004495 0.348946 -0.004813
v 0.154139 -0.502029 -0.165059
v -0.159323 -0.506265 0.170611
v -0.152948 -0.501813 -0.142829
v 0.136515 -0.507286 0.127484
v -0.207458 0.497235 0.215968
v 0.236286 0.484752 0.219000
v -0.214941 0.490569 -0.202375
v 0.196020 0.486466 -0.216095
vn -0.4982 -0.2900 -0.8171
vn 0.8624 -0.3052 -0.4038
vn 0.4982 -0.2900 0.8171
vn -0.8654 -0.3006 0.4009
vn -0.2853 -0.9578 -0.0344
vn 0.0221 0.9224 0.3857
vn -0.8665 0.3174 0.3854
vn 0.4821 0.3053 0.8212
vn 0.8612 0.3259 -0.3900
vn -0.4821 0.3053 -0.8212
vn -0.8522 0.3053 -0.4249
vn 0.8522 0.3053 0.4249
vn -0.3890 0.9212 -0.0126
vn 0.0390 -0.9582 0.2833
vn 0.8492 -0.2900 0.4412
vn -0.8492 -0.2900 -0.4412
vn -0.2851 -0.9583 -0.0195
vn 0.0374 0.9215 0.3867
vn 0.3303 0.3259 -0.8859
vn -0.3253 0.3174 0.8908
vn 0.3807 0.9245 -0.0182
vn -0.0208 -0.9592 -0.2818
vn -0.3408 -0.3006 0.8908
vn 0.3439 -0.3052 -0.8880
vn 0.2830 -0.9591 0.0015
vn 0.2590 -0.9658 -0.0084
vn -0.0456 -0.9558 -0.2903
vn 0.0175 -0.9679 0.2508
vn 0.0286 0.9234 -0.3827
vn -0.3652 0.9302 0.0375
vn 0.4009 0.9159 -0.0218
vn -0.0096 0.9241 -0.3819
vn -0.6039 -0.0441 -0.7958
vn 0.8620 -0.0456 -0.5048
vn 0.6039 -0.0441 0.7958
vn -0.8620 -0.0456 0.5048
vn 0.8843 -0.4286 0.1853
vn -0.0761 0.0839 -0.9936
vn -0.7968 0.0897 0.5975
vn 0.6136 0.2257 0.7567
vn 0.8918 -0.0528 -0.4494
vn -0.5081 -0.2334 -0.8291
vn -0.8079 -0.2001 -0.5543
vn 0.7502 0.1938 0.6322
vn -0.6768 0.3155 -0.6652
vn 0.2453 -0.4286 0.8696
vn 0.8353 -0.0441 0.5481
vn -0.8353 -0.0441 -0.5481
vn -0.8843 -0.4286 -0.1853
vn 0.4435 0.8106 0.3824
vn 0.3615 -0.1988 -0.9109
vn -0.5893 0.1521 0.7935
vn 0.8505 0.5144 -0.1097
vn -0.2453 -0.4286 -0.8696
vn -0.4447 -0.0456 0.8945
vn 0.4447 -0.0456 -0.8945
usemtl red.001
s off
f 18//1 10//1 3//1 14//1
f 24//2 11//2 7//2 20//2
f 17//3 12//3 5//3 16//3
f 23//4 9//4 1//4 22//4
f 26//5 53//5 56//5
f 25//6 60//6 59//6
f 21//7 2//7 9//7 23//7
f 15//8 6//8 12//8 17//8
f 19//9 8//9 11//9 24//9
f 13//10 4//10 10//10 18//10
f 2//11 13//11 18//11 9//11
f 8//12 15//12 17//12 11//12
f 21//13 57//13 59//13 13//13 2//13
f 22//14 54//14 56//14 16//14 5//14
f 11//15 17//15 16//15 7//15
f 9//16 18//16 14//16 1//16
f 1//17 14//17 55//17 54//17 22//17
f 6//18 15//18 58//18 57//18 21//18
f 4//19 19//19 24//19 10//19
f 6//20 21//20 23//20 12//20
f 15//21 8//21 19//21 60//21 58//21
f 14//22 3//22 20//22 53//22 55//22
f 12//23 23//23 22//23 5//23
f 10//24 24//24 20//24 3//24
f 56//25 53//25 20//25 7//25 16//25
f 54//26 55//26 26//26
f 56//27 54//27 26//27
f 55//28 53//28 26//28
f 57//29 58//29 25//29
f 58//30 60//30 25//30
f 59//31 57//31 25//31
f 59//32 60//32 19//32 4//32 13//32
usemtl brown.001
f 44//33 36//33 29//33 40//33
f 50//34 37//34 33//34 46//34
f 43//35 38//35 31//35 42//35
f 49//36 35//36 27//36 48//36
f 52//37 46//37 33//37 42//37
f 51//38 45//38 30//38 39//38
f 47//39 28//39 35//39 49//39
f 41//40 32//40 38//40 43//40
f 45//41 34//41 37//41 50//41
f 39//42 30//42 36//42 44//42
f 28//43 39//43 44//43 35//43
f 34//44 41//44 43//44 37//44
f 47//45 51//45 39//45 28//45
f 48//46 52//46 42//46 31//46
f 37//47 43//47 42//47 33//47
f 35//48 44//48 40//48 27//48
f 27//49 40//49 52//49 48//49
f 32//50 41//50 51//50 47//50
f 30//51 45//51 50//51 36//51
f 32//52 47//52 49//52 38//52
f 41//53 34//53 45//53 51//53
f 40//54 29//54 46//54 52//54
f 38//55 49//55 48//55 31//55
f 36//56 50//56 46//56 29//56
