# Blender v2.92.0 OBJ File: 'lowpoly fruits.blend'
# www.blender.org
mtllib banana.mtl
o Icosphere.002
v 3.058321 -0.438718 -3.224318
v 3.246911 -0.533673 -3.117283
v 3.342023 -0.427080 -2.928523
v 1.985788 -0.087907 -1.925256
v 1.948612 -0.211875 -1.884722
v 2.017128 -0.117232 -1.872757
v 1.998540 -0.179216 -1.852490
v 1.917272 -0.182550 -1.937221
v 1.935860 -0.120566 -1.957488
v 2.002944 -0.150713 -2.103163
v 1.965513 -0.275531 -2.062351
v 2.028623 -0.334583 -1.956633
v 2.166593 -0.144000 -1.932539
v 2.129162 -0.268817 -1.891727
v 2.102087 -0.424504 -2.273221
v 2.159096 -0.234399 -2.335379
v 2.198205 -0.514443 -2.112206
v 2.766262 -0.521342 -2.372591
v 3.108059 -0.528944 -2.700116
v 3.106153 -0.292344 -2.707597
v 2.963348 -0.179864 -2.859234
v 2.822451 -0.303983 -3.003391
v 2.482560 -0.532981 -2.668385
v 2.824357 -0.540582 -2.995910
v 2.625364 -0.645461 -2.516747
v 2.967161 -0.653063 -2.844272
v 2.351333 -0.414278 -2.013351
v 2.408342 -0.224174 -2.075509
v 3.348236 -0.146211 -2.967128
v 3.468188 -0.292893 -3.076404
v 3.206044 -0.303647 -3.349721
v 3.086092 -0.156965 -3.240445
v 3.397092 -0.371611 -3.267701
v 3.411999 -0.042671 -3.095957
v 3.521248 -0.114395 -3.197917
v 3.322597 -0.122545 -3.405036
v 3.213348 -0.050820 -3.303076
v 3.476547 -0.154332 -3.352457
v 3.340189 0.069797 -3.230493
v 3.429461 0.051365 -3.200003
v 3.492812 0.009773 -3.259128
v 3.377618 0.005047 -3.379231
v 3.314268 0.046639 -3.320107
v 3.466890 -0.013386 -3.348742
v 3.422793 0.271321 -3.317649
v 3.492697 0.256887 -3.293775
v 3.542303 0.224320 -3.340072
v 3.452102 0.220619 -3.434118
v 3.402496 0.253187 -3.387821
v 3.522006 0.206185 -3.410243
v 3.429509 0.324401 -3.326179
v 3.511761 0.307418 -3.298087
v 3.570130 0.269097 -3.352562
v 3.463995 0.264742 -3.463221
v 3.405626 0.303063 -3.408746
v 3.546247 0.247759 -3.435129
vn 0.5335 0.1141 0.8381
vn -0.4607 -0.8631 -0.2068
vn -0.6298 0.7642 -0.1392
vn 0.3765 0.8752 0.3036
vn 0.3529 -0.8514 0.3881
vn 0.6847 0.0593 0.7264
vn -0.1485 -0.5703 0.8079
vn 0.3927 0.1773 0.9024
vn -0.8912 0.1246 -0.4362
vn -0.7905 -0.5966 0.1386
vn 0.0492 -0.7056 -0.7069
vn 0.5377 -0.8218 0.1883
vn -0.1329 -0.8493 -0.5109
vn -0.0364 -0.6732 0.7386
vn -0.3215 0.8466 -0.4241
vn 0.2208 -0.8352 0.5037
vn -0.3390 -0.8798 -0.3333
vn -0.8185 0.0586 -0.5715
vn -0.7124 -0.7009 0.0338
vn -0.6984 0.0025 -0.7157
vn 0.7355 -0.6774 0.0086
vn 0.9048 -0.3909 -0.1688
vn 0.0821 0.7934 0.6032
vn 0.2223 -0.4189 -0.8804
vn 0.7659 0.2192 0.6044
vn -0.5795 0.1640 -0.7983
vn -0.8913 0.4289 0.1470
vn 0.9529 0.0730 -0.2945
vn 0.3316 0.0476 -0.9422
vn 0.7510 0.4222 0.5077
vn -0.4915 0.3713 -0.7878
vn -0.9586 0.1592 0.2361
vn 0.9367 -0.2900 -0.1960
vn -0.2014 0.4572 0.8662
vn 0.2469 -0.3183 -0.9153
vn 0.7126 0.0977 0.6948
vn -0.6672 0.0411 -0.7438
vn 0.8324 -0.5451 -0.0999
vn -0.2827 0.1870 0.9408
vn 0.1565 -0.5729 -0.8046
vn 0.6128 -0.1652 0.7728
vn -0.7390 -0.2207 -0.6366
vn -0.6679 0.4045 0.6247
vn 0.2947 0.9011 -0.3181
usemtl yellow.002
s off
f 27//1 28//1 13//1 14//1
f 23//2 25//2 17//2 15//2
f 21//3 39//3 43//3 37//3 32//3 22//3
f 21//4 4//4 6//4 13//4 28//4 20//4
f 19//5 18//5 25//5 26//5
f 19//6 3//6 30//6 29//6 20//6 28//6 27//6 18//6
f 12//7 14//7 7//7 5//7
f 14//8 13//8 6//8 7//8
f 10//9 11//9 8//9 9//9
f 11//10 12//10 5//10 8//10
f 2//11 1//11 31//11 33//11
f 19//12 26//12 2//12 3//12
f 26//13 24//13 1//13 2//13
f 17//14 27//14 14//14 12//14
f 16//15 10//15 9//15 4//15 21//15 22//15
f 25//16 18//16 27//16 17//16
f 26//17 25//17 23//17 24//17
f 16//18 15//18 11//18 10//18
f 15//19 17//19 12//19 11//19
f 24//20 23//20 15//20 16//20 22//20 32//20 31//20 1//20
f 3//21 2//21 33//21 30//21
f 30//22 33//22 38//22 35//22
f 34//23 40//23 39//23 21//23 20//23 29//23
f 33//24 31//24 36//24 38//24
f 29//25 30//25 35//25 34//25
f 31//26 32//26 37//26 36//26
f 43//27 39//27 45//27 49//27
f 35//28 38//28 44//28 41//28
f 38//29 36//29 42//29 44//29
f 34//30 35//30 41//30 40//30
f 36//31 37//31 43//31 42//31
f 49//32 45//32 51//32 55//32
f 41//33 44//33 50//33 47//33
f 39//34 40//34 46//34 45//34
f 44//35 42//35 48//35 50//35
f 40//36 41//36 47//36 46//36
f 42//37 43//37 49//37 48//37
f 47//38 50//38 56//38 53//38
f 45//39 46//39 52//39 51//39
f 50//40 48//40 54//40 56//40
f 46//41 47//41 53//41 52//41
f 48//42 49//42 55//42 54//42
usemtl brown.004
f 6//43 4//43 9//43 8//43 5//43 7//43
f 52//44 53//44 56//44 54//44 55//44 51//44
