# Blender v2.92.0 OBJ File: 'lowpoly fruits.blend'
# www.blender.org
mtllib banana.mtl
o Icosphere.002
v 0.263965 -0.026056 -0.536327
v 0.452555 -0.121010 -0.429293
v 0.547667 -0.014417 -0.240532
v -0.808568 0.324756 0.762735
v -0.845744 0.200788 0.803268
v -0.777229 0.295431 0.815234
v -0.795817 0.233447 0.835501
v -0.877084 0.230113 0.750769
v -0.858496 0.292097 0.730503
v -0.791412 0.261949 0.584828
v -0.828843 0.137132 0.625640
v -0.765734 0.078080 0.731357
v -0.627764 0.268663 0.755452
v -0.665194 0.143845 0.796264
v -0.692270 -0.011841 0.414770
v -0.635261 0.178263 0.352612
v -0.596151 -0.101781 0.575785
v -0.028094 -0.108679 0.315400
v 0.313703 -0.116281 -0.012125
v 0.311796 0.120318 -0.019606
v 0.168992 0.232799 -0.171243
v 0.028094 0.108680 -0.315400
v -0.311796 -0.120318 0.019606
v 0.030001 -0.127920 -0.307919
v -0.168992 -0.232798 0.171243
v 0.172805 -0.240400 -0.156281
v -0.443024 -0.001616 0.674640
v -0.386015 0.188489 0.612482
v 0.553879 0.266452 -0.279137
v 0.673831 0.119770 -0.388413
v 0.411688 0.109015 -0.661731
v 0.291736 0.255698 -0.552454
v 0.602736 0.041051 -0.579711
v 0.617643 0.369992 -0.407966
v 0.726892 0.298267 -0.509927
v 0.528240 0.290118 -0.717045
v 0.418992 0.361842 -0.615085
v 0.682190 0.258330 -0.664466
v 0.545833 0.482460 -0.542502
v 0.635105 0.464027 -0.512012
v 0.698455 0.422436 -0.571137
v 0.583262 0.417710 -0.691240
v 0.519911 0.459301 -0.632116
v 0.672534 0.399277 -0.660751
v 0.628437 0.683984 -0.629658
v 0.698341 0.669550 -0.605784
v 0.747947 0.636982 -0.652081
v 0.657746 0.633282 -0.746127
v 0.608139 0.665850 -0.699830
v 0.727650 0.618848 -0.722252
v 0.635152 0.737063 -0.638188
v 0.717404 0.720080 -0.610096
v 0.775773 0.681759 -0.664571
v 0.669639 0.677405 -0.775230
v 0.611270 0.715726 -0.720755
v 0.751890 0.660422 -0.747138
vn 0.5335 0.1141 0.8381
vn -0.4607 -0.8631 -0.2068
vn -0.6298 0.7642 -0.1392
vn 0.3765 0.8752 0.3036
vn 0.3529 -0.8514 0.3881
vn 0.6847 0.0593 0.7264
vn -0.1485 -0.5703 0.8079
vn 0.3927 0.1773 0.9024
vn -0.8912 0.1246 -0.4362
vn -0.7905 -0.5966 0.1386
vn 0.0492 -0.7056 -0.7069
vn 0.5377 -0.8218 0.1883
vn -0.1329 -0.8493 -0.5109
vn -0.0364 -0.6732 0.7386
vn -0.3215 0.8466 -0.4241
vn 0.2208 -0.8352 0.5037
vn -0.3390 -0.8798 -0.3333
vn -0.8185 0.0586 -0.5715
vn -0.7124 -0.7009 0.0338
vn -0.6984 0.0025 -0.7157
vn 0.7355 -0.6774 0.0086
vn 0.9048 -0.3909 -0.1688
vn 0.0821 0.7934 0.6032
vn 0.2223 -0.4189 -0.8804
vn 0.7659 0.2192 0.6044
vn -0.5795 0.1640 -0.7983
vn -0.8913 0.4289 0.1470
vn 0.9529 0.0730 -0.2945
vn 0.3316 0.0476 -0.9422
vn 0.7510 0.4222 0.5077
vn -0.4915 0.3713 -0.7878
vn -0.9586 0.1592 0.2361
vn 0.9367 -0.2900 -0.1960
vn -0.2014 0.4572 0.8662
vn 0.2469 -0.3183 -0.9153
vn 0.7126 0.0977 0.6948
vn -0.6672 0.0411 -0.7438
vn 0.8324 -0.5451 -0.0999
vn -0.2827 0.1870 0.9408
vn 0.1565 -0.5729 -0.8046
vn 0.6128 -0.1652 0.7728
vn -0.7390 -0.2207 -0.6366
vn -0.6679 0.4045 0.6247
vn 0.2947 0.9011 -0.3181
usemtl yellow.002
s off
f 27//1 28//1 13//1 14//1
f 23//2 25//2 17//2 15//2
f 21//3 39//3 43//3 37//3 32//3 22//3
f 21//4 4//4 6//4 13//4 28//4 20//4
f 19//5 18//5 25//5 26//5
f 19//6 3//6 30//6 29//6 20//6 28//6 27//6 18//6
f 12//7 14//7 7//7 5//7
f 14//8 13//8 6//8 7//8
f 10//9 11//9 8//9 9//9
f 11//10 12//10 5//10 8//10
f 2//11 1//11 31//11 33//11
f 19//12 26//12 2//12 3//12
f 26//13 24//13 1//13 2//13
f 17//14 27//14 14//14 12//14
f 16//15 10//15 9//15 4//15 21//15 22//15
f 25//16 18//16 27//16 17//16
f 26//17 25//17 23//17 24//17
f 16//18 15//18 11//18 10//18
f 15//19 17//19 12//19 11//19
f 24//20 23//20 15//20 16//20 22//20 32//20 31//20 1//20
f 3//21 2//21 33//21 30//21
f 30//22 33//22 38//22 35//22
f 34//23 40//23 39//23 21//23 20//23 29//23
f 33//24 31//24 36//24 38//24
f 29//25 30//25 35//25 34//25
f 31//26 32//26 37//26 36//26
f 43//27 39//27 45//27 49//27
f 35//28 38//28 44//28 41//28
f 38//29 36//29 42//29 44//29
f 34//30 35//30 41//30 40//30
f 36//31 37//31 43//31 42//31
f 49//32 45//32 51//32 55//32
f 41//33 44//33 50//33 47//33
f 39//34 40//34 46//34 45//34
f 44//35 42//35 48//35 50//35
f 40//36 41//36 47//36 46//36
f 42//37 43//37 49//37 48//37
f 47//38 50//38 56//38 53//38
f 45//39 46//39 52//39 51//39
f 50//40 48//40 54//40 56//40
f 46//41 47//41 53//41 52//41
f 48//42 49//42 55//42 54//42
usemtl brown.004
f 6//43 4//43 9//43 8//43 5//43 7//43
f 52//44 53//44 56//44 54//44 55//44 51//44
