# Blender v2.90.1 OBJ File: ''
# www.blender.org
mtllib pear.mtl
o Icosphere.001
v -0.001622 -0.563501 -0.001465
v 0.031161 -0.583061 0.167826
v -0.141620 -0.590743 0.076008
v 0.094312 -0.377770 0.493931
v 0.194777 -0.567328 0.022792
v 0.499172 -0.377770 0.060388
v -0.094423 -0.611160 -0.088127
v 0.054863 -0.607155 -0.122373
v 0.367179 0.126838 0.342936
v -0.443126 -0.377770 0.242858
v -0.215201 0.126838 0.455704
v -0.370423 -0.377770 -0.345867
v -0.502416 0.126838 -0.063319
v 0.211957 -0.377770 -0.458635
v -0.097556 0.126838 -0.496862
v 0.439883 0.126838 -0.245789
v -0.126071 0.423082 0.267466
v 0.213115 0.425185 0.198891
v 0.064865 0.951367 0.060623
v -0.040578 0.945226 0.089504
v -0.294223 0.424935 -0.037746
v -0.095134 0.950638 -0.013015
v -0.058418 0.417636 -0.295104
v -0.021807 0.929311 -0.105701
v 0.258965 0.419731 -0.145785
v 0.088274 0.935433 -0.051213
v -0.001622 1.027456 -0.001465
v 0.021647 0.989463 0.020264
v 0.021647 1.080010 0.020264
v -0.023351 1.080010 0.021803
v -0.023351 0.989463 0.021803
v 0.020107 1.080010 -0.024734
v 0.073217 1.170558 0.024862
v 0.072976 1.158344 0.068197
v -0.024891 1.080010 -0.023195
v -0.024891 0.989463 -0.023195
v 0.029759 1.170558 0.071399
v 0.030000 1.182772 0.028064
v 0.020107 0.989463 -0.024734
vt 0.810888 0.110979
vt 0.860867 0.135083
vt 0.787878 0.165415
vt 0.994797 0.222674
vt 0.871131 0.056744
vt 0.994797 0.005802
vt 0.755253 0.111677
vt 0.788452 0.060030
vt 0.046848 0.994586
vt 0.115419 0.865561
vt 0.279942 0.994586
vt 0.780420 0.328667
vt 0.977124 0.392602
vt 0.638811 0.591443
vt 0.424209 0.578469
vt 0.605533 0.429859
vt 0.005450 0.168383
vt 0.222386 0.060021
vt 0.209392 0.300425
vt 0.135942 0.633647
vt 0.335006 0.771510
vt 0.974001 0.404008
vt 0.968078 0.547275
vt 0.762812 0.446470
vt 0.378138 0.345001
vt 0.368778 0.205694
vt 0.017772 0.381026
vt 0.730401 0.561232
vt 0.849440 0.621285
vt 0.688509 0.720253
vt 0.652836 0.698079
vt 0.608176 0.281360
vt 0.474320 0.232260
vt 0.593498 0.041153
vt 0.638811 0.055576
vt 0.252321 0.402465
vt 0.346586 0.349691
vt 0.368778 0.575252
vt 0.335721 0.585395
vt 0.139563 0.450771
vt 0.297651 0.603973
vt 0.510828 0.795812
vt 0.376247 0.795812
vt 0.386436 0.607835
vt 0.429032 0.603074
vt 0.974001 0.777615
vt 0.855154 0.755832
vt 0.348517 0.619084
vt 0.633283 0.008741
vt 0.696199 0.763108
vt 0.647617 0.746023
vt 0.019645 0.808397
vt 0.004951 0.735052
vt 0.647924 0.177302
vt 0.029977 0.038681
vt 0.084993 0.009149
vt 0.626365 0.620779
vt 0.619071 0.640218
vt 0.601188 0.635812
vt 0.608483 0.616372
vt 0.543162 0.647009
vt 0.553755 0.601380
vt 0.572053 0.601389
vt 0.560660 0.642028
vt 0.542293 0.604607
vt 0.530334 0.635644
vt 0.513282 0.632439
vt 0.525241 0.601402
vt 0.629274 0.678475
vt 0.610981 0.677435
vt 0.340231 0.646776
vt 0.340231 0.628512
vt 0.358496 0.628857
vt 0.358496 0.647121
vt 0.582534 0.680397
vt 0.572898 0.644818
vt 0.590719 0.640168
vt 0.600355 0.675748
vt 0.542293 0.681187
vt 0.524430 0.682656
vt 0.554555 0.681142
vt 0.572053 0.676162
vt 0.581881 0.601369
vt 0.600355 0.601618
vt 0.629274 0.605747
vt 0.611392 0.601340
vn 0.1161 -0.9839 -0.1362
vn 0.4437 -0.7947 0.4143
vn 0.2929 -0.9349 0.2005
vn 0.1126 -0.9166 0.3835
vn -0.0574 -0.9473 0.3152
vn 0.7179 -0.1876 0.6704
vn -0.4157 -0.1876 0.8899
vn -0.9748 -0.1876 -0.1204
vn -0.1867 -0.1876 -0.9643
vn 0.8594 -0.1876 -0.4756
vn 0.1867 0.1876 0.9643
vn -0.8594 0.1876 0.4756
vn -0.7179 0.1876 -0.6704
vn 0.4157 0.1876 -0.8899
vn 0.9748 0.1876 0.1204
vn 0.1994 0.2939 0.9348
vn -0.8364 0.2947 0.4621
vn -0.7045 0.2935 -0.6462
vn 0.4070 0.2923 -0.8654
vn 0.9466 0.2952 0.1298
vn 0.8617 0.4961 0.1065
vn 0.3016 0.6643 -0.6839
vn -0.6174 0.6967 0.3653
vn 0.7290 0.6822 0.0554
vn -0.4910 0.6797 -0.5449
vn 0.1503 0.7005 0.6976
vn -0.0053 -0.9935 -0.1138
vn 0.5312 -0.7947 -0.2939
vn -0.6025 -0.7947 -0.0744
vn -0.2569 -0.7947 0.5500
vn -0.1154 -0.7947 -0.5960
vn 0.3673 0.4960 -0.7868
vn -0.6343 0.4955 -0.5934
vn -0.7599 0.4953 0.4209
vn 0.1667 0.4948 0.8529
vn 0.0342 -0.0000 0.9994
vn 0.8679 -0.4902 -0.0805
vn -0.9994 0.0000 0.0342
vn -0.0210 -0.4902 0.8714
vn 0.2804 0.9235 0.2618
vn -0.0342 0.0000 -0.9994
vn -0.8868 0.4558 0.0761
vn 0.9994 -0.0000 -0.0342
vn 0.0153 0.4558 -0.8900
vn 0.0000 -1.0000 0.0000
usemtl yellow.001
s 1
f 1/1/1 2/2/1 3/3/1
f 4/4/2 2/2/2 5/5/2 6/6/2
f 1/1/3 3/3/3 7/7/3
f 1/1/4 7/7/4 8/8/4
f 1/1/5 8/8/5 5/5/5
f 4/9/6 6/10/6 9/11/6
f 10/12/7 4/4/7 11/13/7
f 12/14/8 10/15/8 13/16/8
f 14/17/9 12/18/9 15/19/9
f 6/10/10 14/20/10 16/21/10
f 4/22/11 9/23/11 11/24/11
f 10/15/12 11/25/12 13/16/12
f 12/18/13 13/26/13 15/19/13
f 14/17/14 15/19/14 16/27/14
f 6/10/15 16/21/15 9/11/15
f 17/28/16 18/29/16 19/30/16 20/31/16
f 21/32/17 17/33/17 20/34/17 22/35/17
f 23/36/18 21/37/18 22/38/18 24/39/18
f 25/40/19 23/36/19 24/39/19 26/41/19
f 18/42/20 25/43/20 26/44/20 19/45/20
f 9/23/21 16/46/21 25/47/21 18/29/21
f 26/41/22 24/39/22 27/48/22
f 22/35/23 20/34/23 27/49/23
f 19/30/24 26/50/24 27/51/24
f 24/39/25 22/38/25 27/48/25
f 20/31/26 19/30/26 27/51/26
f 5/5/27 2/2/27 1/1/27
f 5/52/28 8/53/28 14/20/28 6/10/28
f 7/7/29 3/3/29 10/12/29 12/54/29
f 3/3/30 2/2/30 4/4/30 10/12/30
f 8/55/31 7/56/31 12/18/31 14/17/31
f 16/27/32 15/19/32 23/36/32 25/40/32
f 15/19/33 13/26/33 21/37/33 23/36/33
f 13/16/34 11/25/34 17/33/34 21/32/34
f 11/24/35 9/23/35 18/29/35 17/28/35
usemtl brown.003
f 28/57/36 29/58/36 30/59/36 31/60/36
f 32/61/37 33/62/37 34/63/37 29/64/37
f 31/65/38 30/66/38 35/67/38 36/68/38
f 29/58/39 34/69/39 37/70/39 30/59/39
f 34/71/40 33/72/40 38/73/40 37/74/40
f 36/75/41 35/76/41 32/77/41 39/78/41
f 30/66/42 37/79/42 38/80/42 35/67/42
f 39/81/43 32/61/43 29/64/43 28/82/43
f 35/76/44 38/83/44 33/84/44 32/77/44
f 39/85/45 28/57/45 31/60/45 36/86/45
